{
  "accessors": [
    {
      "bufferView": 2,
      "componentType": 5126,
      "count": 65532,
      "max": [
        5.563042640686035,
        -0.035854339599609375,
        4.41163969039917
      ],
      "min": [
        -4.420384883880615,
        -34.72584533691406,
        -3.653252601623535
      ],
      "type": "VEC3"
    },
    {
      "bufferView": 2,
      "byteOffset": 786384,
      "componentType": 5126,
      "count": 65532,
      "max": [
        0.9999971389770508,
        0.9999977946281433,
        0.9999973177909851
      ],
      "min": [
        -0.9999971389770508,
        -0.9999957084655762,
        -0.999989926815033
      ],
      "type": "VEC3"
    },
    {
      "bufferView": 1,
      "componentType": 5126,
      "count": 65532,
      "max": [
        0.9998779892921448,
        0.9407960176467896
      ],
      "min": [
        0.00012199999764561653,
        0.00012199999764561653
      ],
      "type": "VEC2"
    },
    {
      "bufferView": 0,
      "componentType": 5125,
      "count": 268731,
      "type": "SCALAR"
    },
    {
      "bufferView": 2,
      "byteOffset": 1572768,
      "componentType": 5126,
      "count": 65532,
      "max": [
        4.627731800079346,
        -0.15819549560546875,
        4.487353801727295
      ],
      "min": [
        -6.342628002166748,
        -33.981834411621094,
        -4.083322525024414
      ],
      "type": "VEC3"
    },
    {
      "bufferView": 2,
      "byteOffset": 2359152,
      "componentType": 5126,
      "count": 65532,
      "max": [
        0.9999791383743286,
        0.9998754262924194,
        0.9999950528144836
      ],
      "min": [
        -0.9999993443489075,
        -0.9997488856315613,
        -0.9999955892562866
      ],
      "type": "VEC3"
    },
    {
      "bufferView": 1,
      "byteOffset": 524256,
      "componentType": 5126,
      "count": 65532,
      "max": [
        0.9998779892921448,
        0.9447020292282104
      ],
      "min": [
        0.00012199999764561653,
        0.00012199999764561653
      ],
      "type": "VEC2"
    },
    {
      "bufferView": 0,
      "byteOffset": 1074924,
      "componentType": 5125,
      "count": 271581,
      "type": "SCALAR"
    },
    {
      "bufferView": 2,
      "byteOffset": 3145536,
      "componentType": 5126,
      "count": 65532,
      "max": [
        5.810373783111572,
        -0.041255950927734375,
        5.050244331359863
      ],
      "min": [
        -3.9407947063446045,
        -34.1988410949707,
        -4.583021640777588
      ],
      "type": "VEC3"
    },
    {
      "bufferView": 2,
      "byteOffset": 3931920,
      "componentType": 5126,
      "count": 65532,
      "max": [
        0.9999966621398926,
        0.9996765851974487,
        0.999992847442627
      ],
      "min": [
        -0.9999902844429016,
        -0.9999904036521912,
        -0.9999994039535522
      ],
      "type": "VEC3"
    },
    {
      "bufferView": 1,
      "byteOffset": 1048512,
      "componentType": 5126,
      "count": 65532,
      "max": [
        0.9998779892921448,
        0.9344480037689209
      ],
      "min": [
        0.00012199999764561653,
        0.00012199999764561653
      ],
      "type": "VEC2"
    },
    {
      "bufferView": 0,
      "byteOffset": 2161248,
      "componentType": 5125,
      "count": 272853,
      "type": "SCALAR"
    },
    {
      "bufferView": 2,
      "byteOffset": 4718304,
      "componentType": 5126,
      "count": 65533,
      "max": [
        6.25848388671875,
        -0.06899070739746094,
        4.25150728225708
      ],
      "min": [
        -5.481463432312012,
        -33.276084899902344,
        -4.505056381225586
      ],
      "type": "VEC3"
    },
    {
      "bufferView": 2,
      "byteOffset": 5504700,
      "componentType": 5126,
      "count": 65533,
      "max": [
        0.9999861121177673,
        0.9999780654907227,
        0.9999917149543762
      ],
      "min": [
        -0.99998539686203,
        -0.9999842047691345,
        -0.9999837875366211
      ],
      "type": "VEC3"
    },
    {
      "bufferView": 1,
      "byteOffset": 1572768,
      "componentType": 5126,
      "count": 65533,
      "max": [
        0.9998779892921448,
        0.9432370066642761
      ],
      "min": [
        0.00012199999764561653,
        0.00012199999764561653
      ],
      "type": "VEC2"
    },
    {
      "bufferView": 0,
      "byteOffset": 3252660,
      "componentType": 5125,
      "count": 252192,
      "type": "SCALAR"
    },
    {
      "bufferView": 2,
      "byteOffset": 6291096,
      "componentType": 5126,
      "count": 65532,
      "max": [
        5.830789089202881,
        -0.046077728271484375,
        5.090944766998291
      ],
      "min": [
        -6.07010555267334,
        -33.752899169921875,
        -4.383123874664307
      ],
      "type": "VEC3"
    },
    {
      "bufferView": 2,
      "byteOffset": 7077480,
      "componentType": 5126,
      "count": 65532,
      "max": [
        0.9999805688858032,
        0.9999474287033081,
        0.9999828934669495
      ],
      "min": [
        -0.9999971389770508,
        -0.9999862313270569,
        -0.9999971985816956
      ],
      "type": "VEC3"
    },
    {
      "bufferView": 1,
      "byteOffset": 2097032,
      "componentType": 5126,
      "count": 65532,
      "max": [
        0.9998779892921448,
        0.9378349781036377
      ],
      "min": [
        0.00012199999764561653,
        0.00012199999764561653
      ],
      "type": "VEC2"
    },
    {
      "bufferView": 0,
      "byteOffset": 4261428,
      "componentType": 5125,
      "count": 250074,
      "type": "SCALAR"
    },
    {
      "bufferView": 2,
      "byteOffset": 7863864,
      "componentType": 5126,
      "count": 65532,
      "max": [
        6.252270221710205,
        -8.32398796081543,
        5.1161885261535645
      ],
      "min": [
        -6.47017240524292,
        -31.23953628540039,
        -4.5792131423950195
      ],
      "type": "VEC3"
    },
    {
      "bufferView": 2,
      "byteOffset": 8650248,
      "componentType": 5126,
      "count": 65532,
      "max": [
        0.9999921917915344,
        0.999993085861206,
        0.9999948740005493
      ],
      "min": [
        -0.9999665021896362,
        -0.9999642372131348,
        -0.9999982714653015
      ],
      "type": "VEC3"
    },
    {
      "bufferView": 1,
      "byteOffset": 2621288,
      "componentType": 5126,
      "count": 65532,
      "max": [
        0.9998779892921448,
        0.9393309950828552
      ],
      "min": [
        0.00012199999764561653,
        0.00012199999764561653
      ],
      "type": "VEC2"
    },
    {
      "bufferView": 0,
      "byteOffset": 5261724,
      "componentType": 5125,
      "count": 256380,
      "type": "SCALAR"
    },
    {
      "bufferView": 2,
      "byteOffset": 9436632,
      "componentType": 5126,
      "count": 65533,
      "max": [
        5.566498279571533,
        -0.05310821533203125,
        4.776886940002441
      ],
      "min": [
        -6.285452365875244,
        -32.86781692504883,
        -3.8467254638671875
      ],
      "type": "VEC3"
    },
    {
      "bufferView": 2,
      "byteOffset": 10223028,
      "componentType": 5126,
      "count": 65533,
      "max": [
        0.9999860525131226,
        0.9999783039093018,
        0.9999948740005493
      ],
      "min": [
        -0.9999780654907227,
        -0.9999945759773254,
        -0.9999972581863403
      ],
      "type": "VEC3"
    },
    {
      "bufferView": 1,
      "byteOffset": 3145544,
      "componentType": 5126,
      "count": 65533,
      "max": [
        0.9998779892921448,
        0.9456790089607239
      ],
      "min": [
        0.00012199999764561653,
        0.00012199999764561653
      ],
      "type": "VEC2"
    },
    {
      "bufferView": 0,
      "byteOffset": 6287244,
      "componentType": 5125,
      "count": 249408,
      "type": "SCALAR"
    },
    {
      "bufferView": 2,
      "byteOffset": 11009424,
      "componentType": 5126,
      "count": 65532,
      "max": [
        5.756588459014893,
        -0.035854339599609375,
        3.677861213684082
      ],
      "min": [
        -6.001183032989502,
        -30.04875373840332,
        -4.556891441345215
      ],
      "type": "VEC3"
    },
    {
      "bufferView": 2,
      "byteOffset": 11795808,
      "componentType": 5126,
      "count": 65532,
      "max": [
        0.9999860525131226,
        0.9998690485954285,
        0.9999922513961792
      ],
      "min": [
        -0.9999921321868896,
        -0.9999834895133972,
        -0.9999908804893494
      ],
      "type": "VEC3"
    },
    {
      "bufferView": 1,
      "byteOffset": 3669808,
      "componentType": 5126,
      "count": 65532,
      "max": [
        0.9998779892921448,
        0.942225992679596
      ],
      "min": [
        0.00012199999764561653,
        0.00012199999764561653
      ],
      "type": "VEC2"
    },
    {
      "bufferView": 0,
      "byteOffset": 7284876,
      "componentType": 5125,
      "count": 211671,
      "type": "SCALAR"
    },
    {
      "bufferView": 2,
      "byteOffset": 12582192,
      "componentType": 5126,
      "count": 65532,
      "max": [
        5.696730136871338,
        -0.05078697204589844,
        4.773683547973633
      ],
      "min": [
        -3.056154489517212,
        -31.374164581298828,
        -4.429599761962891
      ],
      "type": "VEC3"
    },
    {
      "bufferView": 2,
      "byteOffset": 13368576,
      "componentType": 5126,
      "count": 65532,
      "max": [
        0.9999997019767761,
        0.9999933242797852,
        0.9999847412109375
      ],
      "min": [
        -0.9999921321868896,
        -0.9999997019767761,
        -0.9998372793197632
      ],
      "type": "VEC3"
    },
    {
      "bufferView": 1,
      "byteOffset": 4194064,
      "componentType": 5126,
      "count": 65532,
      "max": [
        0.9998779892921448,
        0.9368900060653687
      ],
      "min": [
        0.00012199999764561653,
        0.00012199999764561653
      ],
      "type": "VEC2"
    },
    {
      "bufferView": 0,
      "byteOffset": 8131560,
      "componentType": 5125,
      "count": 236916,
      "type": "SCALAR"
    },
    {
      "bufferView": 2,
      "byteOffset": 14154960,
      "componentType": 5126,
      "count": 65534,
      "max": [
        4.788586616516113,
        -9.6188383102417,
        3.8697657585144043
      ],
      "min": [
        -4.4925079345703125,
        -31.368186950683594,
        -4.096452713012695
      ],
      "type": "VEC3"
    },
    {
      "bufferView": 2,
      "byteOffset": 14941368,
      "componentType": 5126,
      "count": 65534,
      "max": [
        0.9999855160713196,
        0.9999622702598572,
        0.9999880790710449
      ],
      "min": [
        -0.9999775290489197,
        -0.9999376535415649,
        -0.9999977350234985
      ],
      "type": "VEC3"
    },
    {
      "bufferView": 1,
      "byteOffset": 4718320,
      "componentType": 5126,
      "count": 65534,
      "max": [
        0.9998779892921448,
        0.9417719841003418
      ],
      "min": [
        0.00012199999764561653,
        0.00012199999764561653
      ],
      "type": "VEC2"
    },
    {
      "bufferView": 0,
      "byteOffset": 9079224,
      "componentType": 5125,
      "count": 226668,
      "type": "SCALAR"
    },
    {
      "bufferView": 2,
      "byteOffset": 15727776,
      "componentType": 5126,
      "count": 65532,
      "max": [
        5.69021463394165,
        -8.811182022094727,
        4.2591023445129395
      ],
      "min": [
        -3.5324089527130127,
        -26.76358413696289,
        -4.429599761962891
      ],
      "type": "VEC3"
    },
    {
      "bufferView": 2,
      "byteOffset": 16514160,
      "componentType": 5126,
      "count": 65532,
      "max": [
        0.9999878406524658,
        0.9999990463256836,
        0.9999962449073792
      ],
      "min": [
        -0.9999841451644897,
        -0.9999684691429138,
        -0.9999948740005493
      ],
      "type": "VEC3"
    },
    {
      "bufferView": 1,
      "byteOffset": 5242592,
      "componentType": 5126,
      "count": 65532,
      "max": [
        0.9998779892921448,
        0.9398189783096313
      ],
      "min": [
        0.00012199999764561653,
        0.00012199999764561653
      ],
      "type": "VEC2"
    },
    {
      "bufferView": 0,
      "byteOffset": 9985896,
      "componentType": 5125,
      "count": 201522,
      "type": "SCALAR"
    },
    {
      "bufferView": 2,
      "byteOffset": 17300544,
      "componentType": 5126,
      "count": 65533,
      "max": [
        5.777766227722168,
        -8.367125511169434,
        5.127171039581299
      ],
      "min": [
        -4.225021839141846,
        -29.151174545288086,
        -4.583021640777588
      ],
      "type": "VEC3"
    },
    {
      "bufferView": 2,
      "byteOffset": 18086940,
      "componentType": 5126,
      "count": 65533,
      "max": [
        0.9999529719352722,
        0.9999571442604065,
        0.9999818801879883
      ],
      "min": [
        -0.9999552965164185,
        -0.9998964071273804,
        -0.9999968409538269
      ],
      "type": "VEC3"
    },
    {
      "bufferView": 1,
      "byteOffset": 5766848,
      "componentType": 5126,
      "count": 65533,
      "max": [
        0.9998779892921448,
        0.9432370066642761
      ],
      "min": [
        0.00012199999764561653,
        0.00012199999764561653
      ],
      "type": "VEC2"
    },
    {
      "bufferView": 0,
      "byteOffset": 10791984,
      "componentType": 5125,
      "count": 185886,
      "type": "SCALAR"
    },
    {
      "bufferView": 2,
      "byteOffset": 18873336,
      "componentType": 5126,
      "count": 43347,
      "max": [
        5.575257778167725,
        -0.04549217224121094,
        3.16766619682312
      ],
      "min": [
        -4.704563617706299,
        -31.316551208496094,
        -4.4247589111328125
      ],
      "type": "VEC3"
    },
    {
      "bufferView": 2,
      "byteOffset": 19393500,
      "componentType": 5126,
      "count": 43347,
      "max": [
        0.9999601244926453,
        0.9999775886535645,
        0.9999958872795105
      ],
      "min": [
        -0.9999552965164185,
        -0.9999406933784485,
        -0.9999873638153076
      ],
      "type": "VEC3"
    },
    {
      "bufferView": 1,
      "byteOffset": 6291112,
      "componentType": 5126,
      "count": 43347,
      "max": [
        0.9998779892921448,
        0.931397020816803
      ],
      "min": [
        0.00012199999764561653,
        0.00012199999764561653
      ],
      "type": "VEC2"
    },
    {
      "bufferView": 0,
      "byteOffset": 11535528,
      "componentType": 5125,
      "count": 116118,
      "type": "SCALAR"
    }
  ],
  "asset": {
    "extras": {
      "author": "The Royal Armoury (Livrustkammaren) (https://sketchfab.com/TheRoyalArmoury)",
      "license": "CC-BY-4.0 (http://creativecommons.org/licenses/by/4.0/)",
      "source": "https://sketchfab.com/3d-models/the-parade-armour-of-king-erik-xiv-of-sweden-bd189bba7d9e4924b12826a6d68200d9",
      "title": "The Parade Armour of King Erik XIV of Sweden"
    },
    "generator": "Sketchfab-12.68.0",
    "version": "2.0"
  },
  "bufferViews": [
    {
      "buffer": 0,
      "byteLength": 12000000,
      "name": "floatBufferViews",
      "target": 34963
    },
    {
      "buffer": 0,
      "byteLength": 6637888,
      "byteOffset": 12000000,
      "byteStride": 8,
      "name": "floatBufferViews",
      "target": 34962
    },
    {
      "buffer": 0,
      "byteLength": 19913664,
      "byteOffset": 18637888,
      "byteStride": 12,
      "name": "floatBufferViews",
      "target": 34962
    }
  ],
  "buffers": [
    {
      "byteLength": 38551552,
      "uri": "scene.bin"
    }
  ],
  "images": [
    {
      "uri": "textures/180212_Erik_XIV_Rustning_2_Material_u1_v1_baseColor.png"
    }
  ],
  "materials": [
    {
      "doubleSided": true,
      "name": "180212_Erik_XIV_Rustning_2_Material_u1_v1",
      "pbrMetallicRoughness": {
        "baseColorTexture": {
          "index": 0
        },
        "roughnessFactor": 0.28
      }
    }
  ],
  "meshes": [
    {
      "name": "Object_0",
      "primitives": [
        {
          "attributes": {
            "NORMAL": 1,
            "POSITION": 0,
            "TEXCOORD_0": 2
          },
          "indices": 3,
          "material": 0,
          "mode": 4
        }
      ]
    },
    {
      "name": "Object_1",
      "primitives": [
        {
          "attributes": {
            "NORMAL": 5,
            "POSITION": 4,
            "TEXCOORD_0": 6
          },
          "indices": 7,
          "material": 0,
          "mode": 4
        }
      ]
    },
    {
      "name": "Object_2",
      "primitives": [
        {
          "attributes": {
            "NORMAL": 9,
            "POSITION": 8,
            "TEXCOORD_0": 10
          },
          "indices": 11,
          "material": 0,
          "mode": 4
        }
      ]
    },
    {
      "name": "Object_3",
      "primitives": [
        {
          "attributes": {
            "NORMAL": 13,
            "POSITION": 12,
            "TEXCOORD_0": 14
          },
          "indices": 15,
          "material": 0,
          "mode": 4
        }
      ]
    },
    {
      "name": "Object_4",
      "primitives": [
        {
          "attributes": {
            "NORMAL": 17,
            "POSITION": 16,
            "TEXCOORD_0": 18
          },
          "indices": 19,
          "material": 0,
          "mode": 4
        }
      ]
    },
    {
      "name": "Object_5",
      "primitives": [
        {
          "attributes": {
            "NORMAL": 21,
            "POSITION": 20,
            "TEXCOORD_0": 22
          },
          "indices": 23,
          "material": 0,
          "mode": 4
        }
      ]
    },
    {
      "name": "Object_6",
      "primitives": [
        {
          "attributes": {
            "NORMAL": 25,
            "POSITION": 24,
            "TEXCOORD_0": 26
          },
          "indices": 27,
          "material": 0,
          "mode": 4
        }
      ]
    },
    {
      "name": "Object_7",
      "primitives": [
        {
          "attributes": {
            "NORMAL": 29,
            "POSITION": 28,
            "TEXCOORD_0": 30
          },
          "indices": 31,
          "material": 0,
          "mode": 4
        }
      ]
    },
    {
      "name": "Object_8",
      "primitives": [
        {
          "attributes": {
            "NORMAL": 33,
            "POSITION": 32,
            "TEXCOORD_0": 34
          },
          "indices": 35,
          "material": 0,
          "mode": 4
        }
      ]
    },
    {
      "name": "Object_9",
      "primitives": [
        {
          "attributes": {
            "NORMAL": 37,
            "POSITION": 36,
            "TEXCOORD_0": 38
          },
          "indices": 39,
          "material": 0,
          "mode": 4
        }
      ]
    },
    {
      "name": "Object_10",
      "primitives": [
        {
          "attributes": {
            "NORMAL": 41,
            "POSITION": 40,
            "TEXCOORD_0": 42
          },
          "indices": 43,
          "material": 0,
          "mode": 4
        }
      ]
    },
    {
      "name": "Object_11",
      "primitives": [
        {
          "attributes": {
            "NORMAL": 45,
            "POSITION": 44,
            "TEXCOORD_0": 46
          },
          "indices": 47,
          "material": 0,
          "mode": 4
        }
      ]
    },
    {
      "name": "Object_12",
      "primitives": [
        {
          "attributes": {
            "NORMAL": 49,
            "POSITION": 48,
            "TEXCOORD_0": 50
          },
          "indices": 51,
          "material": 0,
          "mode": 4
        }
      ]
    }
  ],
  "nodes": [
    {
      "children": [
        1
      ],
      "matrix": [
        -0.023434338763063778,
        -9.345751965177175e-18,
        0.042089525067869005,
        0.0,
        -0.00038274976574426134,
        -0.04817161366445788,
        -0.00021310499008618216,
        0.0,
        0.042087785017226764,
        -0.00043807659255424257,
        0.02343336967545362,
        0.0,
        -1.1718238592147827,
        -17.104194641113285,
        17.404561996459957,
        1.0
      ],
      "name": "Sketchfab_model"
    },
    {
      "children": [
        2,
        3,
        4,
        5,
        6,
        7,
        8,
        9,
        10,
        11,
        12,
        13,
        14
      ],
      "name": "180212_Erik_XIV_Rustning_2.obj.cleaner.materialmerger.gles"
    },
    {
      "mesh": 0,
      "name": "Object_2"
    },
    {
      "mesh": 1,
      "name": "Object_3"
    },
    {
      "mesh": 2,
      "name": "Object_4"
    },
    {
      "mesh": 3,
      "name": "Object_5"
    },
    {
      "mesh": 4,
      "name": "Object_6"
    },
    {
      "mesh": 5,
      "name": "Object_7"
    },
    {
      "mesh": 6,
      "name": "Object_8"
    },
    {
      "mesh": 7,
      "name": "Object_9"
    },
    {
      "mesh": 8,
      "name": "Object_10"
    },
    {
      "mesh": 9,
      "name": "Object_11"
    },
    {
      "mesh": 10,
      "name": "Object_12"
    },
    {
      "mesh": 11,
      "name": "Object_13"
    },
    {
      "mesh": 12,
      "name": "Object_14"
    }
  ],
  "samplers": [
    {
      "magFilter": 9729,
      "minFilter": 9987,
      "wrapS": 10497,
      "wrapT": 10497
    }
  ],
  "scene": 0,
  "scenes": [
    {
      "name": "Sketchfab_Scene",
      "nodes": [
        0
      ]
    }
  ],
  "textures": [
    {
      "sampler": 0,
      "source": 0
    }
  ]
}
